<?xml version="1.0" encoding="UTF-8"?>
<!DOCTYPE svg PUBLIC "-//W3C//DTD SVG 1.1//EN" "http://www.w3.org/Graphics/SVG/1.1/DTD/svg11.dtd">
<!-- Creator: CorelDRAW -->
<svg xmlns="http://www.w3.org/2000/svg" xml:space="preserve" width="80.063mm" height="80.215mm" version="1.1" style="shape-rendering:geometricPrecision; text-rendering:geometricPrecision; image-rendering:optimizeQuality; fill-rule:evenodd; clip-rule:evenodd"
viewBox="0 0 8006.3 8021.5"
 xmlns:xlink="http://www.w3.org/1999/xlink"
 xmlns:xodm="http://www.corel.com/coreldraw/odm/2003">
 <defs>
  <style type="text/css">
   <![CDATA[
    .fil0 {fill:#00426F}
    .fil1 {fill:#0074CE}
    .fil2 {fill:#4891FF}
   ]]>
  </style>
 </defs>
 <g id="Layer_x0020_1">
  <metadata id="CorelCorpID_0Corel-Layer"/>
  <g id="_1776237134000">
   <path class="fil0" d="M277 396l561.91 700.61c164.31,190.54 447.38,471.47 615.22,629.92 39.23,37.03 61.86,71.56 102.44,107.29 40.89,36.04 76.35,58.46 115.62,95.69 175.07,165.93 487.79,416.72 685.57,559.45 381.45,275.31 597.42,415.64 1012.7,653.44 106.86,61.19 475.16,230.83 536.72,291.15 117.07,9.18 156.79,33.83 224.61,-42.13 48.2,-53.97 95.18,-104.65 138.49,-160.06 106.22,-135.91 467.06,-541.83 573.02,-619.39 106.95,-78.28 260.37,-166.98 417.19,-197.91 504.74,-99.54 185.16,568.1 77.38,727.27 -61.55,90.89 -208.63,231.92 -285.64,310.92 -92.41,94.81 -229.18,213.46 -303.59,310.65 170.04,134.11 1181.61,360.36 1475.87,417.46 566.19,109.89 1158.62,162.68 1752.55,168.16 -5.97,-878.41 -0.36,-1758.88 -0.36,-2637.52 0,-457.81 53.88,-825.09 -146.57,-1169.42 -271.73,-466.77 -716.63,-465 -803.44,-514.37l-6072.14 0c-19.07,10.15 -5.96,5.74 -45.36,17.4 -135.81,40.2 -155.99,14.84 -343.91,113.62 -90.79,47.73 -249.05,145.96 -288.28,237.77z"/>
   <path class="fil1" d="M3342.15 5579.98l448.88 351.61c754.7,583.35 1703.82,1093.58 2624.47,1409.35 195.08,66.9 1101.34,364.67 1277.12,325.18 135.22,-96.27 264.95,-383.75 280.37,-622.79 18.15,-281.01 3.41,-608.83 3.41,-894.87 0,-598.33 -8.14,-1202.32 0.66,-1799.94 -593.93,-5.48 -1186.36,-58.27 -1752.55,-168.16 -294.26,-57.1 -1305.83,-283.35 -1475.87,-417.46 -230.45,172.94 -151.47,218.81 -65.68,766.49 85.15,543.62 152.98,563.33 -74.07,769.98 -45.03,-36.21 -215.83,-341.42 -261.19,-415.79 -64.57,-105.86 -188.7,-336.52 -264.99,-400.01 -95.47,9.07 -91.57,41.13 -147.23,96.99l-346.9 336.98c-250.87,260.7 36.19,362.55 -246.43,662.44z"/>
   <path class="fil2" d="M2899.83 5166.75l-105.66 -113.82c-44.35,-60.82 -262.9,-127.82 -337.48,-172.49l81.71 -103.63c-57.99,-26.38 -332.51,-362.93 -394.97,-442.75 -440,-562.24 -622.99,-832.27 -996.16,-1493.9 -259.39,-459.87 -888.91,-1957.52 -886.53,-2425.33 -272.2,298.22 -236.66,630.14 -236.66,997.99l0 3742.91c709.9,258.37 1407.16,366.36 2200.71,206.22 253.05,-51.07 448.73,-123.46 675.04,-195.2z"/>
   <path class="fil2" d="M7692.62 7666.12c-175.78,39.49 -1082.04,-258.28 -1277.12,-325.18 -920.65,-315.77 -1869.77,-826 -2624.47,-1409.35l-448.88 -351.61c-32.4,20.24 -29.3,22.56 -66.25,45.18 -49.58,-66.82 -72.36,-194.34 -130.2,-241.55 -26.77,-23.32 -71.05,-74.21 -116.14,-95.34 -87.48,908.37 65.89,1710.34 515.11,2467.08 45.65,76.89 107.79,185.84 169.71,247.68l3245.58 -0.03c148.5,-4.92 315.23,-58.9 428.16,-112.87 93.07,-44.46 247.14,-142.32 304.5,-224.01z"/>
   <path class="fil1" d="M2538.4 4776.81c125.21,-102.89 88.91,-107.33 316.24,-123.38 301.61,-21.29 361.3,-250.69 622.91,-513.07 42.95,-43.06 75.93,-69.44 78.42,-155.13 -49.06,-49.8 -731.56,-395.85 -856.68,-450.33 102.67,-228.07 313.6,-177.53 524.59,-159.67 228.83,19.37 454,41.26 683.3,58.32 -61.56,-60.32 -429.86,-229.96 -536.72,-291.15 -415.28,-237.8 -631.25,-378.13 -1012.7,-653.44 -197.78,-142.73 -510.5,-393.52 -685.57,-559.45 -39.27,-37.23 -74.73,-59.65 -115.62,-95.69 -40.58,-35.73 -63.21,-70.26 -102.44,-107.29 -167.84,-158.45 -450.91,-439.38 -615.22,-629.92l-561.91 -700.61 -16.26 18.83c-2.38,467.81 627.14,1965.46 886.53,2425.33 373.17,661.63 556.16,931.66 996.16,1493.9 62.46,79.82 336.98,416.37 394.97,442.75z"/>
   <path class="fil2" d="M2409.93 5756.07c-20.48,11.84 -212.76,217.81 -240.13,251.35 -276.17,338.49 -728.79,815.24 -1045.74,1181.93l-359.02 394.52c-232.7,236.71 -105.62,278.94 -26.01,242.66 554.12,-603.37 1108.13,-1213.28 1653.77,-1824.49 255.55,-251.89 85.56,-285.55 17.13,-245.97z"/>
   <path class="fil2" d="M2742.7 5913.44c-73.4,29.68 -428.1,455.09 -513.08,539.22 -102.49,101.46 -733.25,804.43 -740.37,858.36 -8.11,61.51 31.67,97.15 96.53,79.94 48.13,-12.78 676.47,-742.82 850.92,-923.94 52.6,-54.62 388.95,-440.32 393.96,-480.73 6.81,-54.9 -28.31,-96.97 -87.96,-72.85z"/>
   <path class="fil2" d="M1703.52 6014.23c-100.36,107.59 -721.37,796.6 -723.4,854.98 -2.33,67.07 40.29,92.86 109.77,61.75 37.04,-16.58 280.47,-309.23 338.31,-367.45l499.85 -552.54c40.19,-40.31 395.13,-424.7 398.06,-477.87 2.11,-38.33 -16.17,-70.98 -64.43,-71 -93.86,-0.04 -462.6,449.09 -558.16,552.13z"/>
   <path class="fil1" d="M3145.7 5383.61c-8.39,-71.22 -63.03,-201.4 -111.37,-238.97 -34.18,-26.55 -193.34,-89.31 -240.16,-91.71 63.36,75.37 262.32,277.92 351.53,330.68z"/>
  </g>
 </g>
</svg>
