<svg width="751" height="751" viewBox="0 0 751 751" fill="none" xmlns="http://www.w3.org/2000/svg">
<g style="mix-blend-mode:soft-light" opacity="0.2">
<path d="M202.772 146.531C156.758 182.732 121.941 232.452 104.402 289.793C341.466 445.973 354.568 647.124 355.247 664.141C362.241 664.793 369.341 665.159 376.466 665.289C404.888 325.184 254.058 184.141 202.772 146.531Z" fill="#CACCCD"/>
<path d="M92.5527 354.988C92.0307 362.061 91.6914 369.187 91.6914 376.39C91.6914 523.331 213.603 644.747 355.22 664.113C297.461 474.89 151.173 385.969 92.5527 354.988Z" fill="white"/>
<path d="M548.62 146.531C594.634 182.732 629.451 232.452 646.99 289.793C409.926 445.973 396.824 647.124 396.146 664.141C389.151 664.793 382.052 665.159 374.927 665.289C346.53 325.184 497.334 184.141 548.62 146.531Z" fill="white"/>
<path d="M658.839 353.504C659.361 360.577 659.701 367.702 659.701 374.906C659.701 521.847 537.789 644.724 396.172 664.117C453.931 474.894 600.22 384.484 658.839 353.504Z" fill="#CACCCD"/>
<path d="M281.75 106.103C328.756 119.492 365.269 158.041 375.683 206.195V84.4141C341.988 84.4141 310.12 92.2179 281.75 106.103Z" fill="white"/>
<path d="M375.707 84.4141V206.195C386.121 158.041 422.66 119.492 469.64 106.103C441.269 92.2179 409.402 84.4141 375.707 84.4141Z" fill="#CACCCD"/>
</g>
</svg>
